<svg width="281" height="60" viewBox="0 0 281 60" fill="none" xmlns="http://www.w3.org/2000/svg">
<path d="M117.562 14.2643H113.299V16.1504C111.697 14.622 110.03 13.8091 107.915 13.8091C103.588 13.8091 99.9668 17.321 99.9668 22.654C99.9668 27.8244 103.556 31.5314 108.139 31.5314C110.351 31.5314 111.889 30.7835 113.299 29.3852C113.299 31.0111 113.267 32.1818 112.242 33.1573C111.472 33.8727 110.191 34.2955 108.62 34.2955C106.825 34.2955 105.543 33.8402 104.678 32.7996H99.9668C101.121 36.4092 104.101 38.2627 108.78 38.2627C111.376 38.2627 113.427 37.6448 114.966 36.3441C116.921 34.6532 117.562 32.4094 117.562 29.0601V14.2643ZM108.876 17.7763C111.697 17.7763 113.524 19.9225 113.524 22.719C113.524 25.6457 111.569 27.5642 108.941 27.5642C106.281 27.5642 104.261 25.5481 104.261 22.6865C104.261 20.02 106.056 17.7763 108.876 17.7763Z" fill="black"/>
<path d="M121.445 31.5314H125.707V7.59811H121.445V31.5314Z" fill="black"/>
<path d="M137.573 13.8091C132.926 13.8091 128.76 17.6787 128.76 22.9141C128.76 27.987 132.67 31.9867 137.605 31.9867C142.797 31.9867 146.611 27.8894 146.611 22.8816C146.611 17.7763 142.541 13.8091 137.573 13.8091ZM137.637 17.9063C140.425 17.9063 142.316 19.9875 142.316 22.9141C142.316 25.9383 140.265 27.8894 137.637 27.8894C134.881 27.8894 133.054 25.8082 133.054 22.8816C133.054 20.02 134.977 17.9063 137.637 17.9063Z" fill="black"/>
<path d="M154.324 31.5314H156.984L160.733 21.6784L164.355 31.5314H167.079L173.265 14.2643H169.066L165.637 23.9547L162.015 14.2643H159.451L155.766 24.0848L152.369 14.2643H148.17L154.324 31.5314Z" fill="black"/>
<path d="M175.278 31.5314H179.54V14.2643H175.278V31.5314ZM177.393 7.14285C175.919 7.14285 174.669 8.28099 174.669 9.77682C174.669 11.3702 175.822 12.7685 177.393 12.7685C178.899 12.7685 180.117 11.5328 180.117 10.0044C180.117 8.44358 178.931 7.14285 177.393 7.14285Z" fill="black"/>
<path d="M187.656 14.2643H183.394V31.5314H187.656V24.1823C187.656 22.3938 187.624 20.833 188.489 19.4347C189.162 18.3616 190.188 17.7763 191.374 17.7763C193.97 17.7763 194.258 19.955 194.258 23.3694V31.5314H198.521V19.7274C198.521 16.0203 195.861 13.8091 192.688 13.8091C190.797 13.8091 189.291 14.622 187.656 16.0203V14.2643Z" fill="black"/>
<path d="M219.469 14.2643H215.206V16.1504C213.604 14.622 211.937 13.8091 209.822 13.8091C205.495 13.8091 201.873 17.321 201.873 22.654C201.873 27.8244 205.463 31.5314 210.046 31.5314C212.257 31.5314 213.796 30.7835 215.206 29.3852C215.206 31.0111 215.174 32.1818 214.148 33.1573C213.379 33.8727 212.097 34.2955 210.527 34.2955C208.732 34.2955 207.45 33.8402 206.585 32.7996H201.873C203.027 36.4092 206.008 38.2627 210.687 38.2627C213.283 38.2627 215.334 37.6448 216.873 36.3441C218.828 34.6532 219.469 32.4094 219.469 29.0601V14.2643ZM210.783 17.7763C213.604 17.7763 215.43 19.9225 215.43 22.719C215.43 25.6457 213.475 27.5642 210.847 27.5642C208.187 27.5642 206.168 25.5481 206.168 22.6865C206.168 20.02 207.963 17.7763 210.783 17.7763Z" fill="black"/>
<path d="M228.031 29.7104C229.569 31.2063 231.139 31.9867 233.287 31.9867C237.613 31.9867 241.427 28.2146 241.427 22.9141C241.427 17.5161 237.774 13.8091 233.383 13.8091C231.332 13.8091 229.569 14.5895 228.031 16.1504V7.59811H223.768V31.5314H228.031V29.7104ZM232.518 17.7763C235.338 17.7763 237.133 20.0525 237.133 22.8816C237.133 25.8408 235.178 28.0195 232.518 28.0195C229.89 28.0195 227.838 25.9708 227.838 22.8491C227.838 19.8249 229.793 17.7763 232.518 17.7763Z" fill="black"/>
<path d="M244.958 22.1662C244.958 23.597 244.894 24.41 245.118 25.8082C245.791 29.8405 248.323 31.9542 252.425 31.9542C254.797 31.9542 256.56 31.3038 257.906 29.7755C259.7 27.7593 259.893 25.418 259.893 22.2313V14.2643H255.63V23.4669C255.63 26.3936 254.701 27.987 252.425 27.987C250.182 27.987 249.22 26.3611 249.22 23.2718V14.2643H244.958V22.1662Z" fill="black"/>
<path d="M276.738 31.5314H281.001V7.59811H276.738V16.1504C275.2 14.5895 273.437 13.8091 271.386 13.8091C266.963 13.8091 263.374 17.5161 263.374 22.9141C263.374 28.2146 267.155 31.9867 271.482 31.9867C273.629 31.9867 275.232 31.2063 276.738 29.7104V31.5314ZM272.251 17.7763C274.943 17.7763 276.93 19.8249 276.93 22.8491C276.93 26.0034 274.879 28.0195 272.251 28.0195C269.591 28.0195 267.668 25.8408 267.668 22.8816C267.668 20.0525 269.431 17.7763 272.251 17.7763Z" fill="black"/>
<path d="M66.1748 7.14286C69.7949 7.14286 73.3337 8.23205 76.3437 10.2727C79.3538 12.3134 81.6998 15.2138 83.0851 18.6073C84.4705 22.0008 84.833 25.7349 84.1267 29.3374C83.4205 32.9399 81.6772 36.249 79.1174 38.8463C76.5576 41.4435 73.2962 43.2123 69.7456 43.9289C66.1951 44.6454 62.5148 44.2777 59.1702 42.872C55.8257 41.4664 52.967 39.0861 50.9558 36.032C48.9446 32.978 47.8711 29.3874 47.8711 25.7143C47.8712 20.7889 49.7997 16.0653 53.2323 12.5825C56.6649 9.09969 61.3204 7.14301 66.1748 7.14286ZM66.1748 36.8571C68.3469 36.8576 70.4704 36.2045 72.2766 34.9804C74.0829 33.7564 75.4909 32.0163 76.3225 29.9804C77.1541 27.9444 77.372 25.7039 76.9486 23.5423C76.5252 21.3807 75.4796 19.395 73.9439 17.8363C72.4082 16.2777 70.4515 15.2161 68.3211 14.7858C66.1908 14.3556 63.9826 14.5759 61.9757 15.4191C59.9688 16.2622 58.2534 17.6902 57.0464 19.5225C55.8394 21.3549 55.1951 23.5092 55.1949 25.7131C55.1982 28.667 56.3561 31.499 58.4146 33.5879C60.473 35.6768 63.2634 36.8533 66.1748 36.8571Z" fill="#5FCEF6"/>
<path d="M54.911 26.7123C54.911 27.5843 54.6142 28.4205 54.0861 29.0371C53.5579 29.6536 52.8415 30 52.0946 30H50.6864C49.9396 29.9997 49.2235 29.6531 48.6956 29.0366C48.1677 28.4201 47.8711 27.584 47.8711 26.7123V6.57534C47.8711 4.83168 48.4644 3.15941 49.5205 1.92633C50.5766 0.693252 52.0091 0.000343241 53.5028 0H54.911V26.7123Z" fill="#5FCEF6"/>
<path d="M5.6319 0C6.74578 0 7.83465 0.335137 8.76081 0.963031C9.68697 1.59092 10.4088 2.48337 10.8351 3.52752C11.2614 4.57167 11.3729 5.72062 11.1556 6.82909C10.9383 7.93755 10.4019 8.95574 9.61425 9.75489C8.82662 10.5541 7.82311 11.0983 6.73063 11.3188C5.63814 11.5393 4.50576 11.4261 3.47666 10.9936C2.44757 10.5611 1.56799 9.82868 0.949146 8.88897C0.330305 7.94926 0 6.84446 0 5.71428C0 4.19876 0.593359 2.74531 1.64954 1.67368C2.70573 0.602039 4.13823 0 5.6319 0Z" fill="#F1BF62"/>
<path d="M23.9636 44.2857C19.7327 44.2825 15.633 42.7976 12.3588 40.0825C9.08457 37.3674 6.83713 33.589 5.99713 29.3872C5.15714 25.1855 5.77621 20.8187 7.74951 17.0264C9.7228 13.2342 12.929 10.2496 16.8251 8.57826C21.3027 6.68371 26.3387 6.66385 30.8308 8.52304C35.3229 10.3822 38.905 13.969 40.7933 18.4983C42.6815 23.0276 42.7219 28.1304 40.9057 32.6898C39.0895 37.2492 35.5647 40.8938 31.1027 42.8259C28.8441 43.7942 26.416 44.2907 23.9636 44.2857ZM23.9636 14.4227C21.213 14.4263 18.5618 15.465 16.5243 17.3373C14.4868 19.2096 13.2082 21.782 12.9365 24.5555C12.6648 27.329 13.4194 30.1058 15.0539 32.3475C16.6884 34.5891 19.0863 36.1357 21.7825 36.6872C24.4787 37.2387 27.2809 36.7558 29.6456 35.3322C32.0103 33.9086 33.7689 31.6458 34.5803 28.9827C35.3917 26.3196 35.198 23.4461 34.0368 20.9195C32.8756 18.3929 30.8297 16.3934 28.2959 15.3089C26.9253 14.7211 25.4518 14.4197 23.9636 14.4227Z" fill="#3D38D0"/>
<path d="M23.9387 59.9987C19.7735 60.0036 15.7026 58.7784 12.2521 56.4815C10.0274 55.0018 8.11089 53.1166 6.6059 50.9277C6.26081 50.4259 5.47755 48.4208 5.17825 47.8869L7.74386 46.4286C8.726 45.8819 9.86447 45.6712 10.9812 45.8294C12.0979 45.9876 13.5866 47.9855 14.3724 48.7826L14.4003 48.81C15.8877 50.2726 17.7017 51.3728 19.6976 52.0229C21.6935 52.673 23.816 52.8549 25.8959 52.5542C27.9759 52.2535 29.9557 51.4784 31.6775 50.2909C33.3993 49.1034 34.8155 47.5362 35.8131 45.7143L42.2424 49.3654C41.9424 49.8999 41.6152 50.4246 41.2715 50.9264C39.0024 54.2347 35.808 56.8245 32.0748 58.3822C29.5008 59.4552 26.7332 60.0055 23.938 60" fill="#3D38D0"/>
</svg>
