<svg width="72" height="113" viewBox="0 0 72 113" fill="none" xmlns="http://www.w3.org/2000/svg">
<path d="M0.519295 104.327C-0.480129 107.984 1.67366 111.802 5.42302 112.363C18.2311 114.278 31.3878 111.858 42.7495 105.373C56.1093 97.7484 65.893 85.1287 69.9482 70.2903C74.0035 55.4519 71.9981 39.6103 64.3733 26.2505C57.8888 14.8888 47.7918 6.11348 35.7898 1.24846C32.2764 -0.175696 28.4801 2.0163 27.4807 5.67325C26.4813 9.33019 28.6677 13.0572 32.1264 14.6094C40.6305 18.4258 47.7718 24.8589 52.4499 33.0555C58.2699 43.2531 59.8006 55.345 56.7053 66.6711C53.6099 77.9972 46.142 87.6299 35.9445 93.4499C27.7478 98.128 18.3272 100.035 9.0642 98.9956C5.29678 98.5729 1.51871 100.67 0.519295 104.327Z" fill="#E6E6E6"/>
</svg>
