<svg width="29" height="35" viewBox="0 0 29 35" fill="none" xmlns="http://www.w3.org/2000/svg">
<path d="M25.7376 3.86036L16.2942 0.274186C15.3155 -0.0913952 13.7187 -0.0913952 12.74 0.274186L3.29661 3.86036C1.47661 4.5567 0 6.71537 0 8.68254V22.7835C0 24.1936 0.910001 26.0563 2.02604 26.8919L11.4694 34.0469C13.1349 35.3177 15.8649 35.3177 17.5304 34.0469L26.9738 26.8919C28.0898 26.0389 28.9999 24.1936 28.9999 22.7835V8.68254C29.017 6.71537 27.5404 4.5567 25.7376 3.86036ZM20.4836 13.6092L13.1006 21.0949C12.843 21.356 12.5168 21.4779 12.1906 21.4779C11.8644 21.4779 11.5381 21.356 11.2806 21.0949L8.53341 18.2747C8.29392 18.029 8.15962 17.6975 8.15962 17.352C8.15962 17.0066 8.29392 16.6751 8.53341 16.4294C9.03133 15.9245 9.85548 15.9245 10.3534 16.4294L12.2078 18.3095L18.6808 11.7465C19.1787 11.2416 20.0029 11.2416 20.5008 11.7465C20.9987 12.2513 20.9987 13.1043 20.4836 13.6092Z" fill="url(#paint0_linear_1791_127249)"/>
<defs>
<linearGradient id="paint0_linear_1791_127249" x1="14.5" y1="-78.4744" x2="14.5" y2="37.8378" gradientUnits="userSpaceOnUse">
<stop stop-color="#6365EF"/>
<stop offset="1" stop-color="#F5F6FD"/>
</linearGradient>
</defs>
</svg>
