<svg width="31" height="33" viewBox="0 0 31 33" fill="none" xmlns="http://www.w3.org/2000/svg">
<path d="M21.1054 3.50572V1.13954C21.1054 0.517659 20.5972 0.00195312 19.9843 0.00195312C19.3714 0.00195312 18.8632 0.517659 18.8632 1.13954V3.41471H9.14668V1.13954C9.14668 0.517659 8.63843 0.00195312 8.02554 0.00195312C7.41266 0.00195312 6.90441 0.517659 6.90441 1.13954V3.50572C2.86833 3.88492 0.910088 6.32694 0.611119 9.95205C0.581222 10.3919 0.939985 10.7559 1.35854 10.7559H26.6513C27.0848 10.7559 27.4436 10.3767 27.3987 9.95205C27.0997 6.32694 25.1415 3.88492 21.1054 3.50572ZM24.4688 20.8577C21.1652 20.8577 18.4894 23.5728 18.4894 26.9248C18.4894 28.0624 18.8034 29.1393 19.3565 30.0494C19.8834 30.9481 20.632 31.692 21.5284 32.208C22.4248 32.724 23.4382 32.9941 24.4688 32.992C26.6513 32.992 28.5497 31.8089 29.5812 30.0494C30.1343 29.1393 30.4482 28.0624 30.4482 26.9248C30.4482 23.5728 27.7724 20.8577 24.4688 20.8577ZM27.5632 26.2726L24.3791 29.2607C24.1699 29.4579 23.8858 29.564 23.6168 29.564C23.3327 29.564 23.0487 29.4579 22.8245 29.2304L21.3446 27.7287C21.1361 27.5147 21.0192 27.2258 21.0192 26.9248C21.0192 26.6239 21.1361 26.335 21.3446 26.1209C21.7781 25.6811 22.4956 25.6811 22.9291 26.1209L23.6467 26.849L26.0384 24.6042C26.4869 24.1795 27.2044 24.2098 27.6229 24.6648C28.0415 25.1199 28.0116 25.8328 27.5632 26.2726Z" fill="url(#paint0_linear_1791_127258)"/>
<path d="M25.9631 13.0293H2.04562C1.22346 13.0293 0.550781 13.7118 0.550781 14.5461V23.8895C0.550781 28.4398 2.79305 31.4734 8.025 31.4734H15.3946C16.426 31.4734 17.1435 30.4571 16.8147 29.4712C16.5157 28.5915 16.2616 27.6207 16.2616 26.923C16.2616 22.3272 19.9539 18.5807 24.4832 18.5807C24.9167 18.5807 25.3502 18.6111 25.7688 18.6869C26.6657 18.8234 27.4729 18.1105 27.4729 17.2004V14.5612C27.469 14.1562 27.3087 13.7688 27.0264 13.4824C26.7441 13.1959 26.3623 13.0332 25.9631 13.0293ZM9.83376 25.7248C9.54974 25.9978 9.16108 26.1646 8.77242 26.1646C8.38376 26.1646 7.9951 25.9978 7.71108 25.7248C7.44201 25.4366 7.27758 25.0422 7.27758 24.6479C7.27758 24.2535 7.44201 23.8591 7.71108 23.5709C7.86057 23.4344 8.01005 23.3282 8.20438 23.2524C8.75747 23.0097 9.4152 23.1462 9.83376 23.5709C10.1028 23.8591 10.2673 24.2535 10.2673 24.6479C10.2673 25.0422 10.1028 25.4366 9.83376 25.7248ZM9.83376 20.416L9.60953 20.598C9.51984 20.6587 9.43015 20.7042 9.34046 20.7346C9.25077 20.7801 9.16108 20.8104 9.07139 20.8256C8.96675 20.8407 8.86211 20.8559 8.77242 20.8559C8.38376 20.8559 7.9951 20.689 7.71108 20.416C7.44201 20.1278 7.27758 19.7335 7.27758 19.3391C7.27758 18.9447 7.44201 18.5504 7.71108 18.2622C8.0549 17.9133 8.57809 17.7465 9.07139 17.8527C9.16108 17.8678 9.25077 17.8982 9.34046 17.9437C9.43015 17.974 9.51984 18.0195 9.60953 18.0802L9.83376 18.2622C10.1028 18.5504 10.2673 18.9447 10.2673 19.3391C10.2673 19.7335 10.1028 20.1278 9.83376 20.416ZM15.0657 20.416C14.7817 20.689 14.393 20.8559 14.0044 20.8559C13.6157 20.8559 13.2271 20.689 12.943 20.416C12.674 20.1278 12.5095 19.7335 12.5095 19.3391C12.5095 18.9447 12.674 18.5504 12.943 18.2622C13.5111 17.701 14.5126 17.701 15.0657 18.2622C15.3348 18.5504 15.4992 18.9447 15.4992 19.3391C15.4992 19.7335 15.3348 20.1278 15.0657 20.416Z" fill="url(#paint1_linear_1791_127258)"/>
<defs>
<linearGradient id="paint0_linear_1791_127258" x1="15.5288" y1="-73.9658" x2="15.5288" y2="35.6669" gradientUnits="userSpaceOnUse">
<stop stop-color="#6365EF"/>
<stop offset="1" stop-color="#F5F6FD"/>
</linearGradient>
<linearGradient id="paint1_linear_1791_127258" x1="14.0118" y1="-28.3246" x2="14.0118" y2="32.9688" gradientUnits="userSpaceOnUse">
<stop stop-color="#6365EF"/>
<stop offset="1" stop-color="#F5F6FD"/>
</linearGradient>
</defs>
</svg>
