<svg width="793" height="411" viewBox="0 0 793 411" fill="none" xmlns="http://www.w3.org/2000/svg">
<rect width="793" height="411" rx="38" fill="white"/>
<mask id="mask0_2_32273" style="mask-type:alpha" maskUnits="userSpaceOnUse" x="0" y="0" width="793" height="411">
<rect width="793" height="411" rx="38" fill="white"/>
</mask>
<g mask="url(#mask0_2_32273)">
<g opacity="0.4">
<mask id="mask1_2_32273" style="mask-type:alpha" maskUnits="userSpaceOnUse" x="0" y="0" width="793" height="411">
<path d="M793 23.0921C793 10.3387 782.661 -6.50204e-07 769.908 -1.45227e-06L23.0926 -4.84198e-05C10.3392 -4.92219e-05 0.000488618 10.3386 0.000489034 23.0921L0.000500934 387.908C0.00050135 400.661 10.3392 411 23.0926 411L769.908 411C782.661 411 793 400.661 793 387.908L793 23.0921Z" fill="white" fill-opacity="0.54"/>
</mask>
<g mask="url(#mask1_2_32273)">
<g filter="url(#filter0_f_2_32273)">
<mask id="mask2_2_32273" style="mask-type:alpha" maskUnits="userSpaceOnUse" x="-468" y="-935" width="1730" height="1935">
<path d="M1260.71 998.832L-467.541 998.832L-467.541 -934.154L1260.71 -934.154L1260.71 998.832Z" fill="white" stroke="url(#paint0_linear_2_32273)" stroke-width="0.855263"/>
</mask>
<g mask="url(#mask2_2_32273)">
<g filter="url(#filter1_f_2_32273)">
<g filter="url(#filter2_f_2_32273)">
<path fill-rule="evenodd" clip-rule="evenodd" d="M450.516 334.657C452.126 204.824 391.935 65.4648 442.227 -35.3842C499.381 -149.996 608.746 -209.208 691.414 -148.414C767.709 -92.3065 752.101 83.8639 779.439 212.602C800.064 309.723 844.468 395.553 827.995 494.75C807.47 618.344 759.838 734.057 685.705 777.043C601.471 825.888 491.308 833.935 432.811 723.904C377.769 620.37 448.819 471.511 450.516 334.657Z" fill="#6D42F2"/>
</g>
<g filter="url(#filter3_f_2_32273)">
<path fill-rule="evenodd" clip-rule="evenodd" d="M56.1065 454.71C57.7148 324.877 -2.4161 185.518 47.8257 84.6686C104.924 -29.9431 214.18 -89.1551 296.767 -28.361C372.986 27.7462 357.394 203.917 384.705 332.655C405.309 429.776 449.67 515.605 433.213 614.803C412.709 738.397 365.123 854.109 291.064 897.096C206.913 945.941 96.8587 953.988 38.4197 843.957C-16.5688 740.422 54.4111 591.563 56.1065 454.71Z" fill="#6D42F2"/>
</g>
<g filter="url(#filter4_f_2_32273)">
<path fill-rule="evenodd" clip-rule="evenodd" d="M526.738 568.012C528.348 438.18 468.158 298.82 518.449 197.971C575.604 83.3596 684.968 24.1476 767.636 84.9417C843.931 141.049 828.323 317.219 855.662 445.957C876.286 543.079 920.691 628.908 904.218 728.105C883.693 851.699 836.06 967.412 761.928 1010.4C677.693 1059.24 567.531 1067.29 509.034 957.259C453.991 853.725 525.041 704.866 526.738 568.012Z" fill="#6D42F2"/>
</g>
<g filter="url(#filter5_f_2_32273)">
<path fill-rule="evenodd" clip-rule="evenodd" d="M656.402 617.239C658.012 487.406 597.822 348.047 648.113 247.198C705.268 132.586 814.632 73.3742 897.3 134.168C973.595 190.276 957.987 366.446 985.326 495.184C1005.95 592.305 1050.35 678.135 1033.88 777.332C1013.36 900.926 965.724 1016.64 891.592 1059.63C807.357 1108.47 697.195 1116.52 638.698 1006.49C583.655 902.952 654.705 754.093 656.402 617.239Z" fill="#6D42F2"/>
</g>
<g filter="url(#filter6_f_2_32273)">
<path fill-rule="evenodd" clip-rule="evenodd" d="M166.497 891.08C199.082 727.829 364.031 842.094 455.945 757.852C513.575 705.033 508.033 503.554 573.581 517.976C637.708 532.086 611.739 703.31 639.678 798.278C667.444 892.657 740.291 952.409 731.911 1056.15C720.483 1197.61 676.624 1357.78 591.64 1392.92C505.775 1428.43 437.932 1292.02 366.221 1207.37C287.106 1113.98 136.306 1042.34 166.497 891.08Z" fill="#1A298E"/>
</g>
<g filter="url(#filter7_f_2_32273)">
<path fill-rule="evenodd" clip-rule="evenodd" d="M-27.1282 988.983C-15.7657 905.276 62.2697 903.798 101.931 844.309C140.163 786.965 143.205 672.269 195.283 655.386C249.587 637.782 309.921 693.637 338.021 767.772C363.236 834.296 318.23 912.022 321.727 988.983C325.834 1079.35 388.475 1164.91 359.65 1243.71C329.825 1325.25 255.618 1341.15 195.283 1334.68C138.616 1328.6 92.2979 1273.08 52.191 1210.74C12.1617 1148.52 -38.7991 1074.96 -27.1282 988.983Z" fill="#2653B0"/>
</g>
<g filter="url(#filter8_f_2_32273)">
<path fill-rule="evenodd" clip-rule="evenodd" d="M-206.91 822.606C-205.3 692.684 -265.491 553.229 -215.199 452.311C-158.044 337.621 -48.6801 278.368 33.988 339.204C110.283 395.349 94.6747 571.641 122.013 700.467C142.638 797.655 187.042 883.543 170.569 982.808C150.045 1106.49 102.412 1222.28 28.2796 1265.3C-55.955 1314.17 -166.118 1322.23 -224.614 1212.12C-279.657 1108.51 -208.607 959.553 -206.91 822.606Z" fill="#6D42F2"/>
</g>
</g>
</g>
</g>
</g>
</g>
</g>
<mask id="mask3_2_32273" style="mask-type:alpha" maskUnits="userSpaceOnUse" x="0" y="1" width="793" height="410">
<rect y="1" width="793" height="410" rx="38" fill="white"/>
</mask>
<g mask="url(#mask3_2_32273)">
<path d="M558 0C558 44.0259 540.985 86.2487 510.698 117.38C480.411 148.511 439.332 166 396.5 166C353.668 166 312.589 148.511 282.302 117.38C252.015 86.2487 235 44.026 235 3.05176e-05L396.5 0H558Z" fill="#6365EF" fill-opacity="0.08"/>
</g>
<defs>
<filter id="filter0_f_2_32273" x="-587.59" y="-514.793" width="1967.17" height="1856.16" filterUnits="userSpaceOnUse" color-interpolation-filters="sRGB">
<feFlood flood-opacity="0" result="BackgroundImageFix"/>
<feBlend mode="normal" in="SourceGraphic" in2="BackgroundImageFix" result="shape"/>
<feGaussianBlur stdDeviation="171.053" result="effect1_foregroundBlur_2_32273"/>
</filter>
<filter id="filter1_f_2_32273" x="-416.537" y="-343.74" width="1625.06" height="1913.49" filterUnits="userSpaceOnUse" color-interpolation-filters="sRGB">
<feFlood flood-opacity="0" result="BackgroundImageFix"/>
<feBlend mode="normal" in="SourceGraphic" in2="BackgroundImageFix" result="shape"/>
<feGaussianBlur stdDeviation="85.5263" result="effect1_foregroundBlur_2_32273"/>
</filter>
<filter id="filter2_f_2_32273" x="155.362" y="-429.266" width="932.801" height="1497.13" filterUnits="userSpaceOnUse" color-interpolation-filters="sRGB">
<feFlood flood-opacity="0" result="BackgroundImageFix"/>
<feBlend mode="normal" in="SourceGraphic" in2="BackgroundImageFix" result="shape"/>
<feGaussianBlur stdDeviation="128.289" result="effect1_foregroundBlur_2_32273"/>
</filter>
<filter id="filter3_f_2_32273" x="-239.009" y="-309.214" width="932.386" height="1497.13" filterUnits="userSpaceOnUse" color-interpolation-filters="sRGB">
<feFlood flood-opacity="0" result="BackgroundImageFix"/>
<feBlend mode="normal" in="SourceGraphic" in2="BackgroundImageFix" result="shape"/>
<feGaussianBlur stdDeviation="128.289" result="effect1_foregroundBlur_2_32273"/>
</filter>
<filter id="filter4_f_2_32273" x="231.585" y="-195.911" width="932.801" height="1497.13" filterUnits="userSpaceOnUse" color-interpolation-filters="sRGB">
<feFlood flood-opacity="0" result="BackgroundImageFix"/>
<feBlend mode="normal" in="SourceGraphic" in2="BackgroundImageFix" result="shape"/>
<feGaussianBlur stdDeviation="128.289" result="effect1_foregroundBlur_2_32273"/>
</filter>
<filter id="filter5_f_2_32273" x="361.249" y="-146.684" width="932.801" height="1497.13" filterUnits="userSpaceOnUse" color-interpolation-filters="sRGB">
<feFlood flood-opacity="0" result="BackgroundImageFix"/>
<feBlend mode="normal" in="SourceGraphic" in2="BackgroundImageFix" result="shape"/>
<feGaussianBlur stdDeviation="128.289" result="effect1_foregroundBlur_2_32273"/>
</filter>
<filter id="filter6_f_2_32273" x="-94.0204" y="260.661" width="1083.18" height="1394.61" filterUnits="userSpaceOnUse" color-interpolation-filters="sRGB">
<feFlood flood-opacity="0" result="BackgroundImageFix"/>
<feBlend mode="normal" in="SourceGraphic" in2="BackgroundImageFix" result="shape"/>
<feGaussianBlur stdDeviation="128.289" result="effect1_foregroundBlur_2_32273"/>
</filter>
<filter id="filter7_f_2_32273" x="-285.403" y="395.54" width="909.188" height="1197.01" filterUnits="userSpaceOnUse" color-interpolation-filters="sRGB">
<feFlood flood-opacity="0" result="BackgroundImageFix"/>
<feBlend mode="normal" in="SourceGraphic" in2="BackgroundImageFix" result="shape"/>
<feGaussianBlur stdDeviation="128.289" result="effect1_foregroundBlur_2_32273"/>
</filter>
<filter id="filter8_f_2_32273" x="-502.063" y="58.3351" width="932.801" height="1497.8" filterUnits="userSpaceOnUse" color-interpolation-filters="sRGB">
<feFlood flood-opacity="0" result="BackgroundImageFix"/>
<feBlend mode="normal" in="SourceGraphic" in2="BackgroundImageFix" result="shape"/>
<feGaussianBlur stdDeviation="128.289" result="effect1_foregroundBlur_2_32273"/>
</filter>
<linearGradient id="paint0_linear_2_32273" x1="-492.475" y1="275.994" x2="227.513" y2="-1027.94" gradientUnits="userSpaceOnUse">
<stop stop-color="white"/>
<stop offset="1" stop-color="white" stop-opacity="0.6"/>
</linearGradient>
</defs>
</svg>
