<svg width="19" height="16" viewBox="0 0 19 16" fill="none" xmlns="http://www.w3.org/2000/svg">
<path d="M18.75 1.85294C18.0599 2.17721 17.316 2.39029 16.5452 2.49221C17.3339 2.00118 17.9434 1.22294 18.2302 0.287206C17.4863 0.750441 16.6617 1.07471 15.7923 1.26C15.0842 0.463235 14.0894 0 12.9601 0C10.8538 0 9.13301 1.77882 9.13301 3.97456C9.13301 4.28956 9.16886 4.59529 9.2316 4.8825C6.04087 4.71574 3.19969 3.13147 1.30856 0.731912C0.976936 1.31559 0.788719 2.00118 0.788719 2.72382C0.788719 4.10426 1.46092 5.32721 2.5006 6.02206C1.86424 6.02206 1.27271 5.83676 0.752868 5.55882L0.752868 5.58662C0.752868 7.51368 2.07935 9.12574 3.83604 9.48706C3.27204 9.6466 2.67994 9.6688 2.10624 9.55191C2.34967 10.3417 2.82643 11.0328 3.46948 11.528C4.11254 12.0232 4.88956 12.2977 5.69132 12.3128C4.33225 13.425 2.64758 14.0261 0.914197 14.0175C0.609465 14.0175 0.304732 13.999 -1.01663e-07 13.9619C1.70292 15.0922 3.72849 15.75 5.89747 15.75C12.9601 15.75 16.8409 9.69088 16.8409 4.43779C16.8409 4.26176 16.8409 4.095 16.832 3.91897C17.5848 3.36309 18.2302 2.65897 18.75 1.85294Z" fill="#303030"/>
</svg>
