<svg width="26" height="31" viewBox="0 0 26 31" fill="none" xmlns="http://www.w3.org/2000/svg">
<path d="M18.7921 0H7.22304C1.43849 0 0 1.56687 0 7.81884V25.2871C0 29.4137 2.23425 30.3911 4.94288 27.4435L4.95819 27.428C6.21304 26.0783 8.12592 26.1869 9.21244 27.6607L10.758 29.755C11.9976 31.415 14.0023 31.415 15.2418 29.755L16.7874 27.6607C17.8893 26.1714 19.8021 26.0628 21.057 27.428C23.7809 30.3756 25.9999 29.3982 25.9999 25.2716V7.81884C26.0152 1.56687 24.5767 0 18.7921 0ZM6.54971 15.5136C5.70804 15.5136 5.0194 14.8155 5.0194 13.9622C5.0194 13.109 5.70804 12.4109 6.54971 12.4109C7.39137 12.4109 8.08001 13.109 8.08001 13.9622C8.08001 14.8155 7.39137 15.5136 6.54971 15.5136ZM6.54971 9.30814C5.70804 9.30814 5.0194 8.61003 5.0194 7.75679C5.0194 6.90354 5.70804 6.20543 6.54971 6.20543C7.39137 6.20543 8.08001 6.90354 8.08001 7.75679C8.08001 8.61003 7.39137 9.30814 6.54971 9.30814ZM19.4808 15.1257H11.0641C10.4367 15.1257 9.91638 14.5983 9.91638 13.9622C9.91638 13.3262 10.4367 12.7987 11.0641 12.7987H19.4808C20.1082 12.7987 20.6285 13.3262 20.6285 13.9622C20.6285 14.5983 20.1082 15.1257 19.4808 15.1257ZM19.4808 8.92031H11.0641C10.4367 8.92031 9.91638 8.39284 9.91638 7.75679C9.91638 7.12073 10.4367 6.59327 11.0641 6.59327H19.4808C20.1082 6.59327 20.6285 7.12073 20.6285 7.75679C20.6285 8.39284 20.1082 8.92031 19.4808 8.92031Z" fill="url(#paint0_linear_1791_127266)"/>
<defs>
<linearGradient id="paint0_linear_1791_127266" x1="13" y1="-69.5059" x2="13" y2="33.5135" gradientUnits="userSpaceOnUse">
<stop stop-color="#6365EF"/>
<stop offset="1" stop-color="#F5F6FD"/>
</linearGradient>
</defs>
</svg>
