<svg width="15" height="16" viewBox="0 0 15 16" fill="none" xmlns="http://www.w3.org/2000/svg">
<path d="M9.9 8.25C9.9 8.72468 9.75924 9.18869 9.49553 9.58337C9.23181 9.97805 8.85698 10.2857 8.41844 10.4673C7.9799 10.649 7.49734 10.6965 7.03178 10.6039C6.56623 10.5113 6.13859 10.2827 5.80294 9.94706C5.4673 9.61141 5.23872 9.18377 5.14612 8.71822C5.05351 8.25266 5.10104 7.7701 5.28269 7.33156C5.46434 6.89302 5.77195 6.51819 6.16663 6.25447C6.56131 5.99076 7.02533 5.85 7.5 5.85C8.13591 5.85198 8.74521 6.10547 9.19487 6.55513C9.64453 7.00479 9.89802 7.61409 9.9 8.25ZM15 4.95L15 11.55C15 12.6639 14.5575 13.7322 13.7698 14.5198C12.9822 15.3075 11.9139 15.75 10.8 15.75H4.2C3.08609 15.75 2.0178 15.3075 1.23015 14.5198C0.442499 13.7322 -8.67504e-08 12.6639 -7.86395e-08 11.55L-3.0582e-08 4.95C-2.24712e-08 3.83609 0.442499 2.7678 1.23015 1.98015C2.0178 1.1925 3.08609 0.75 4.2 0.75H10.8C11.9139 0.75 12.9822 1.1925 13.7698 1.98015C14.5575 2.7678 15 3.83609 15 4.95ZM11.1 8.25C11.1 7.53799 10.8889 6.84196 10.4933 6.24995C10.0977 5.65793 9.53547 5.19651 8.87766 4.92403C8.21985 4.65156 7.49601 4.58027 6.79768 4.71917C6.09934 4.85808 5.45788 5.20095 4.95442 5.70442C4.45095 6.20788 4.10808 6.84934 3.96917 7.54768C3.83027 8.24601 3.90156 8.96985 4.17403 9.62766C4.44651 10.2855 4.90793 10.8477 5.49995 11.2433C6.09196 11.6389 6.78799 11.85 7.5 11.85C8.45478 11.85 9.37045 11.4707 10.0456 10.7956C10.7207 10.1205 11.1 9.20478 11.1 8.25ZM12.3 4.35C12.3 4.172 12.2472 3.99799 12.1483 3.84999C12.0494 3.70198 11.9089 3.58663 11.7444 3.51851C11.58 3.45039 11.399 3.43257 11.2244 3.46729C11.0498 3.50202 10.8895 3.58774 10.7636 3.7136C10.6377 3.83947 10.552 3.99984 10.5173 4.17442C10.4826 4.349 10.5004 4.52996 10.5685 4.69442C10.6366 4.85887 10.752 4.99943 10.9 5.09832C11.048 5.19722 11.222 5.25 11.4 5.25C11.6387 5.25 11.8676 5.15518 12.0364 4.9864C12.2052 4.81761 12.3 4.5887 12.3 4.35Z" fill="#303030"/>
</svg>
